# xmcd CD database file
#
# Track frame offsets:
#	150
#	5010
#	26610
#	49318
#	72457
#	96334
#	100664
#	121664
#	140325
#	164775
#	185262
#
# Disc length: 2686 seconds
#
# Revision: 0
# Processed by: cddbd v1.5.2PL0 Copyright (c) Steve Scherf et al.
# Submitted via: CDex 1.70beta2
#
DISCID=960a7c0b
DTITLE=Natsuki Kayukawa - KOSAMOTA DE HANAUTA
DYEAR=2007
DGENRE=Jazz
TTITLE0=hiraita hiraita ***introduction***
TTITLE1=Greensleeves
TTITLE2=Hummingbird
TTITLE3=Polyusco Polye
TTITLE4=Gyouza Toubanjyan
TTITLE5=Sa-N-Po
TTITLE6=Usagi-To-Kame
TTITLE7=Asadoya Yunta
TTITLE8=Tyou-Tyou
TTITLE9=Hanauta
TTITLE10=Waterloo Road
EXTD=YEAR: 2007
EXTT0=
EXTT1=
EXTT2=
EXTT3=
EXTT4=
EXTT5=
EXTT6=
EXTT7=
EXTT8=
EXTT9=
EXTT10=
PLAYORDER=
